<svg width="36" height="36" viewBox="0 0 36 36" fill="none" xmlns="http://www.w3.org/2000/svg">
<path d="M18 6C18.8297 6 19.5 6.67031 19.5 7.5V10.5H25.125C26.9906 10.5 28.5 12.0094 28.5 13.875V26.625C28.5 28.4906 26.9906 30 25.125 30H10.875C9.00937 30 7.5 28.4906 7.5 26.625V13.875C7.5 12.0094 9.00937 10.5 10.875 10.5H16.5V7.5C16.5 6.67031 17.1703 6 18 6ZM12.75 24C12.3375 24 12 24.3375 12 24.75C12 25.1625 12.3375 25.5 12.75 25.5H14.25C14.6625 25.5 15 25.1625 15 24.75C15 24.3375 14.6625 24 14.25 24H12.75ZM17.25 24C16.8375 24 16.5 24.3375 16.5 24.75C16.5 25.1625 16.8375 25.5 17.25 25.5H18.75C19.1625 25.5 19.5 25.1625 19.5 24.75C19.5 24.3375 19.1625 24 18.75 24H17.25ZM21.75 24C21.3375 24 21 24.3375 21 24.75C21 25.1625 21.3375 25.5 21.75 25.5H23.25C23.6625 25.5 24 25.1625 24 24.75C24 24.3375 23.6625 24 23.25 24H21.75ZM15.375 18C15.375 17.5027 15.1775 17.0258 14.8258 16.6742C14.4742 16.3225 13.9973 16.125 13.5 16.125C13.0027 16.125 12.5258 16.3225 12.1742 16.6742C11.8225 17.0258 11.625 17.5027 11.625 18C11.625 18.4973 11.8225 18.9742 12.1742 19.3258C12.5258 19.6775 13.0027 19.875 13.5 19.875C13.9973 19.875 14.4742 19.6775 14.8258 19.3258C15.1775 18.9742 15.375 18.4973 15.375 18ZM22.5 19.875C22.9973 19.875 23.4742 19.6775 23.8258 19.3258C24.1775 18.9742 24.375 18.4973 24.375 18C24.375 17.5027 24.1775 17.0258 23.8258 16.6742C23.4742 16.3225 22.9973 16.125 22.5 16.125C22.0027 16.125 21.5258 16.3225 21.1742 16.6742C20.8225 17.0258 20.625 17.5027 20.625 18C20.625 18.4973 20.8225 18.9742 21.1742 19.3258C21.5258 19.6775 22.0027 19.875 22.5 19.875ZM5.25 16.5H6V25.5H5.25C4.00781 25.5 3 24.4922 3 23.25V18.75C3 17.5078 4.00781 16.5 5.25 16.5ZM30.75 16.5C31.9922 16.5 33 17.5078 33 18.75V23.25C33 24.4922 31.9922 25.5 30.75 25.5H30V16.5H30.75Z" fill="white"/>
</svg>
