<svg width="36" height="36" viewBox="0 0 36 36" fill="none" xmlns="http://www.w3.org/2000/svg">
<path d="M25.7356 12.2361C26.4192 11.5525 26.4192 10.4424 25.7356 9.75879C25.0521 9.0752 23.9419 9.0752 23.2583 9.75879L17.4997 15.5229L11.7356 9.76426C11.0521 9.08066 9.94189 9.08066 9.2583 9.76426C8.57471 10.4479 8.57471 11.558 9.2583 12.2416L15.0224 18.0002L9.26377 23.7643C8.58018 24.4479 8.58018 25.558 9.26377 26.2416C9.94736 26.9252 11.0575 26.9252 11.7411 26.2416L17.4997 20.4775L23.2638 26.2361C23.9474 26.9197 25.0575 26.9197 25.7411 26.2361C26.4247 25.5525 26.4247 24.4424 25.7411 23.7588L19.9771 18.0002L25.7356 12.2361Z" fill="white"/>
</svg>
