<svg width="36" height="36" viewBox="0 0 36 36" fill="none" xmlns="http://www.w3.org/2000/svg">
<path d="M9.51562 9.51562L7.92188 7.92188C7.21406 7.21406 6 7.71563 6 8.71406V13.875C6 14.4984 6.50156 15 7.125 15H12.2859C13.2891 15 13.7906 13.7859 13.0828 13.0781L11.6391 11.6344C13.2656 10.0078 15.5156 9 18 9C22.9688 9 27 13.0312 27 18C27 22.9688 22.9688 27 18 27C16.0875 27 14.3156 26.4047 12.8578 25.3875C12.1781 24.9141 11.2453 25.0781 10.7672 25.7578C10.2891 26.4375 10.4578 27.3703 11.1375 27.8484C13.0875 29.2031 15.4547 30 18 30C24.6281 30 30 24.6281 30 18C30 11.3719 24.6281 6 18 6C14.6859 6 11.6859 7.34531 9.51562 9.51562ZM18 12C17.3766 12 16.875 12.5016 16.875 13.125V18C16.875 18.3 16.9922 18.5859 17.2031 18.7969L20.5781 22.1719C21.0187 22.6125 21.7312 22.6125 22.1672 22.1719C22.6031 21.7313 22.6078 21.0188 22.1672 20.5828L19.1203 17.5359V13.125C19.1203 12.5016 18.6187 12 17.9953 12H18Z" fill="#FFFEFE"/>
</svg>
