<svg width="36" height="36" viewBox="0 0 36 36" fill="none" xmlns="http://www.w3.org/2000/svg">
<path d="M21.1763 8.49744C21.2085 8.63031 21.2716 8.75371 21.3605 8.8576C21.4494 8.9615 21.5615 9.04295 21.6878 9.09533C21.8141 9.14772 21.9509 9.16956 22.0873 9.15908C22.2236 9.1486 22.3555 9.1061 22.4723 9.03502C25.399 7.25307 28.7481 10.601 26.9662 13.5277C26.8951 13.6444 26.8526 13.7763 26.842 13.9125C26.8315 14.0488 26.8532 14.1856 26.9054 14.3118C26.9577 14.4381 27.039 14.5503 27.1428 14.6392C27.2465 14.7281 27.3698 14.7913 27.5026 14.8237C30.8325 15.6313 30.8325 20.3675 27.5026 21.1763C27.3697 21.2085 27.2463 21.2716 27.1424 21.3605C27.0385 21.4494 26.9571 21.5615 26.9047 21.6878C26.8523 21.8141 26.8304 21.9509 26.8409 22.0873C26.8514 22.2236 26.8939 22.3555 26.965 22.4723C28.7469 25.399 25.399 28.7481 22.4723 26.9662C22.3556 26.8951 22.2237 26.8526 22.0875 26.842C21.9512 26.8315 21.8144 26.8532 21.6882 26.9054C21.5619 26.9577 21.4497 27.039 21.3608 27.1428C21.2719 27.2465 21.2087 27.3698 21.1763 27.5026C20.3687 30.8325 15.6325 30.8325 14.8237 27.5026C14.7915 27.3697 14.7284 27.2463 14.6395 27.1424C14.5506 27.0385 14.4385 26.9571 14.3122 26.9047C14.1859 26.8523 14.0491 26.8304 13.9127 26.8409C13.7764 26.8514 13.6445 26.8939 13.5277 26.965C10.601 28.7469 7.25187 25.399 9.03382 22.4723C9.1049 22.3556 9.14744 22.2237 9.15799 22.0875C9.16855 21.9512 9.14681 21.8144 9.09455 21.6882C9.04229 21.5619 8.96098 21.4497 8.85723 21.3608C8.75348 21.2719 8.63021 21.2087 8.49744 21.1763C5.16752 20.3687 5.16752 15.6325 8.49744 14.8237C8.63031 14.7915 8.75371 14.7284 8.8576 14.6395C8.9615 14.5506 9.04295 14.4385 9.09533 14.3122C9.14772 14.1859 9.16956 14.0491 9.15908 13.9127C9.1486 13.7764 9.1061 13.6445 9.03502 13.5277C7.25307 10.601 10.601 7.25187 13.5277 9.03382C13.6443 9.10544 13.7762 9.14842 13.9126 9.15924C14.049 9.17006 14.186 9.14843 14.3125 9.0961C14.4389 9.04377 14.5511 8.96224 14.64 8.85818C14.7289 8.75413 14.7918 8.6305 14.8237 8.49744C15.6313 5.16752 20.3675 5.16752 21.1763 8.49744ZM18 14.4001C17.0452 14.4001 16.1296 14.7794 15.4545 15.4545C14.7794 16.1296 14.4001 17.0452 14.4001 18C14.4001 18.9548 14.7794 19.8704 15.4545 20.5455C16.1296 21.2206 17.0452 21.5999 18 21.5999C18.9548 21.5999 19.8704 21.2206 20.5455 20.5455C21.2206 19.8704 21.5999 18.9548 21.5999 18C21.5999 17.0452 21.2206 16.1296 20.5455 15.4545C19.8704 14.7794 18.9548 14.4001 18 14.4001Z" fill="white"/>
</svg>
