<svg width="36" height="36" viewBox="0 0 36 36" fill="none" xmlns="http://www.w3.org/2000/svg">
<path d="M18.0003 21.2725C19.8077 21.2725 21.273 19.8073 21.273 17.9998C21.273 16.1923 19.8077 14.7271 18.0003 14.7271C16.1928 14.7271 14.7275 16.1923 14.7275 17.9998C14.7275 19.8073 16.1928 21.2725 18.0003 21.2725Z" stroke="#FFFEFE" stroke-width="2.18182" stroke-linecap="round" stroke-linejoin="round"/>
<path d="M26.0727 21.2727C25.9275 21.6018 25.8842 21.9668 25.9484 22.3206C26.0125 22.6745 26.1812 23.0011 26.4327 23.2582L26.4982 23.3236C26.701 23.5263 26.862 23.7669 26.9718 24.0318C27.0816 24.2966 27.1381 24.5805 27.1381 24.8673C27.1381 25.154 27.0816 25.4379 26.9718 25.7028C26.862 25.9676 26.701 26.2083 26.4982 26.4109C26.2956 26.6138 26.0549 26.7747 25.7901 26.8845C25.5252 26.9943 25.2413 27.0508 24.9545 27.0508C24.6678 27.0508 24.3839 26.9943 24.119 26.8845C23.8542 26.7747 23.6135 26.6138 23.4109 26.4109L23.3455 26.3455C23.0884 26.094 22.7618 25.9253 22.4079 25.8611C22.054 25.7969 21.689 25.8402 21.36 25.9855C21.0373 26.1237 20.7622 26.3534 20.5683 26.646C20.3745 26.9387 20.2705 27.2817 20.2691 27.6327V27.8182C20.2691 28.3968 20.0392 28.9518 19.6301 29.361C19.2209 29.7701 18.6659 30 18.0873 30C17.5086 30 16.9537 29.7701 16.5445 29.361C16.1353 28.9518 15.9055 28.3968 15.9055 27.8182V27.72C15.897 27.3589 15.7801 27.0087 15.57 26.7149C15.3599 26.4212 15.0663 26.1974 14.7273 26.0727C14.3982 25.9275 14.0332 25.8842 13.6794 25.9484C13.3255 26.0125 12.9989 26.1812 12.7418 26.4327L12.6764 26.4982C12.4737 26.701 12.2331 26.862 11.9682 26.9718C11.7034 27.0816 11.4195 27.1381 11.1327 27.1381C10.846 27.1381 10.5621 27.0816 10.2972 26.9718C10.0324 26.862 9.79172 26.701 9.58909 26.4982C9.38623 26.2956 9.2253 26.0549 9.11551 25.7901C9.00571 25.5252 8.94919 25.2413 8.94919 24.9545C8.94919 24.6678 9.00571 24.3839 9.11551 24.119C9.2253 23.8542 9.38623 23.6135 9.58909 23.4109L9.65455 23.3455C9.90604 23.0884 10.0747 22.7618 10.1389 22.4079C10.2031 22.054 10.1598 21.689 10.0145 21.36C9.87626 21.0373 9.64664 20.7622 9.35396 20.5683C9.06128 20.3745 8.71831 20.2705 8.36727 20.2691H8.18182C7.60316 20.2691 7.04821 20.0392 6.63904 19.6301C6.22987 19.2209 6 18.6659 6 18.0873C6 17.5086 6.22987 16.9537 6.63904 16.5445C7.04821 16.1353 7.60316 15.9055 8.18182 15.9055H8.28C8.64108 15.897 8.99128 15.7801 9.28505 15.57C9.57883 15.3599 9.8026 15.0663 9.92727 14.7273C10.0725 14.3982 10.1158 14.0332 10.0516 13.6794C9.98748 13.3255 9.81877 12.9989 9.56727 12.7418L9.50182 12.6764C9.29896 12.4737 9.13803 12.2331 9.02823 11.9682C8.91843 11.7034 8.86192 11.4195 8.86192 11.1327C8.86192 10.846 8.91843 10.5621 9.02823 10.2972C9.13803 10.0324 9.29896 9.79172 9.50182 9.58909C9.70445 9.38623 9.94508 9.2253 10.2099 9.11551C10.4748 9.00571 10.7587 8.94919 11.0455 8.94919C11.3322 8.94919 11.6161 9.00571 11.881 9.11551C12.1458 9.2253 12.3865 9.38623 12.5891 9.58909L12.6545 9.65455C12.9117 9.90604 13.2382 10.0747 13.5921 10.1389C13.946 10.2031 14.311 10.1598 14.64 10.0145H14.7273C15.0499 9.87626 15.3251 9.64664 15.5189 9.35396C15.7128 9.06128 15.8168 8.71831 15.8182 8.36727V8.18182C15.8182 7.60316 16.0481 7.04821 16.4572 6.63904C16.8664 6.22987 17.4213 6 18 6C18.5787 6 19.1336 6.22987 19.5428 6.63904C19.9519 7.04821 20.1818 7.60316 20.1818 8.18182V8.28C20.1832 8.63104 20.2872 8.97401 20.4811 9.26669C20.6749 9.55937 20.9501 9.78899 21.2727 9.92727C21.6018 10.0725 21.9668 10.1158 22.3206 10.0516C22.6745 9.98748 23.0011 9.81877 23.2582 9.56727L23.3236 9.50182C23.5263 9.29896 23.7669 9.13803 24.0318 9.02823C24.2966 8.91843 24.5805 8.86192 24.8673 8.86192C25.154 8.86192 25.4379 8.91843 25.7028 9.02823C25.9676 9.13803 26.2083 9.29896 26.4109 9.50182C26.6138 9.70445 26.7747 9.94508 26.8845 10.2099C26.9943 10.4748 27.0508 10.7587 27.0508 11.0455C27.0508 11.3322 26.9943 11.6161 26.8845 11.881C26.7747 12.1458 26.6138 12.3865 26.4109 12.5891L26.3455 12.6545C26.094 12.9117 25.9253 13.2382 25.8611 13.5921C25.7969 13.946 25.8402 14.311 25.9855 14.64V14.7273C26.1237 15.0499 26.3534 15.3251 26.646 15.5189C26.9387 15.7128 27.2817 15.8168 27.6327 15.8182H27.8182C28.3968 15.8182 28.9518 16.0481 29.361 16.4572C29.7701 16.8664 30 17.4213 30 18C30 18.5787 29.7701 19.1336 29.361 19.5428C28.9518 19.9519 28.3968 20.1818 27.8182 20.1818H27.72C27.369 20.1832 27.026 20.2872 26.7333 20.4811C26.4406 20.6749 26.211 20.9501 26.0727 21.2727Z" stroke="#FFFEFE" stroke-width="2.18182" stroke-linecap="round" stroke-linejoin="round"/>
</svg>
